<svg xmlns="http://www.w3.org/2000/svg" xmlns:xlink="http://www.w3.org/1999/xlink" width="300" zoomAndPan="magnify" viewBox="0 0 224.87999 37.5" height="50" preserveAspectRatio="xMidYMid meet" version="1.0"><defs><g/><clipPath id="6362681223"><path d="M 1.421875 0 L 223.339844 0 L 223.339844 37.007812 L 1.421875 37.007812 Z M 1.421875 0 " clip-rule="nonzero"/></clipPath><clipPath id="3cd1efbb1e"><path d="M 23.183594 28.199219 L 30.101562 28.199219 L 30.101562 35.121094 L 23.183594 35.121094 Z M 23.183594 28.199219 " clip-rule="nonzero"/></clipPath><clipPath id="eab43a3baa"><path d="M 26.644531 28.199219 C 24.734375 28.199219 23.183594 29.75 23.183594 31.660156 C 23.183594 33.570312 24.734375 35.121094 26.644531 35.121094 C 28.554688 35.121094 30.101562 33.570312 30.101562 31.660156 C 30.101562 29.75 28.554688 28.199219 26.644531 28.199219 Z M 26.644531 28.199219 " clip-rule="nonzero"/></clipPath><clipPath id="ddc780ab1a"><path d="M 35.640625 28.28125 L 42.558594 28.28125 L 42.558594 35.199219 L 35.640625 35.199219 Z M 35.640625 28.28125 " clip-rule="nonzero"/></clipPath><clipPath id="76f56fb7d7"><path d="M 39.097656 28.28125 C 37.1875 28.28125 35.640625 29.828125 35.640625 31.738281 C 35.640625 33.648438 37.1875 35.199219 39.097656 35.199219 C 41.007812 35.199219 42.558594 33.648438 42.558594 31.738281 C 42.558594 29.828125 41.007812 28.28125 39.097656 28.28125 Z M 39.097656 28.28125 " clip-rule="nonzero"/></clipPath><clipPath id="b6f4e06a6d"><path d="M 29.28125 17.527344 L 36.199219 17.527344 L 36.199219 24.445312 L 29.28125 24.445312 Z M 29.28125 17.527344 " clip-rule="nonzero"/></clipPath><clipPath id="1c27ee960e"><path d="M 32.742188 17.527344 C 30.832031 17.527344 29.28125 19.078125 29.28125 20.988281 C 29.28125 22.898438 30.832031 24.445312 32.742188 24.445312 C 34.652344 24.445312 36.199219 22.898438 36.199219 20.988281 C 36.199219 19.078125 34.652344 17.527344 32.742188 17.527344 Z M 32.742188 17.527344 " clip-rule="nonzero"/></clipPath><clipPath id="33e7108025"><path d="M 42.300781 17.527344 L 49.21875 17.527344 L 49.21875 24.445312 L 42.300781 24.445312 Z M 42.300781 17.527344 " clip-rule="nonzero"/></clipPath><clipPath id="6e77fdbaf2"><path d="M 45.757812 17.527344 C 43.847656 17.527344 42.300781 19.078125 42.300781 20.988281 C 42.300781 22.898438 43.847656 24.445312 45.757812 24.445312 C 47.667969 24.445312 49.21875 22.898438 49.21875 20.988281 C 49.21875 19.078125 47.667969 17.527344 45.757812 17.527344 Z M 45.757812 17.527344 " clip-rule="nonzero"/></clipPath><clipPath id="ca95fcd30f"><path d="M 47.710938 28.199219 L 54.632812 28.199219 L 54.632812 35.121094 L 47.710938 35.121094 Z M 47.710938 28.199219 " clip-rule="nonzero"/></clipPath><clipPath id="0cdfade8da"><path d="M 51.171875 28.199219 C 49.261719 28.199219 47.710938 29.75 47.710938 31.660156 C 47.710938 33.570312 49.261719 35.121094 51.171875 35.121094 C 53.082031 35.121094 54.632812 33.570312 54.632812 31.660156 C 54.632812 29.75 53.082031 28.199219 51.171875 28.199219 Z M 51.171875 28.199219 " clip-rule="nonzero"/></clipPath><clipPath id="6c7f3fa47d"><path d="M 35.382812 6.664062 L 42.300781 6.664062 L 42.300781 13.582031 L 35.382812 13.582031 Z M 35.382812 6.664062 " clip-rule="nonzero"/></clipPath><clipPath id="161feda15e"><path d="M 38.839844 6.664062 C 36.929688 6.664062 35.382812 8.210938 35.382812 10.121094 C 35.382812 12.03125 36.929688 13.582031 38.839844 13.582031 C 40.75 13.582031 42.300781 12.03125 42.300781 10.121094 C 42.300781 8.210938 40.75 6.664062 38.839844 6.664062 Z M 38.839844 6.664062 " clip-rule="nonzero"/></clipPath><clipPath id="f1afa58732"><path d="M 26 15 L 46 15 L 46 37.007812 L 26 37.007812 Z M 26 15 " clip-rule="nonzero"/></clipPath><clipPath id="8b767016ee"><path d="M 32 15 L 53 15 L 53 37.007812 L 32 37.007812 Z M 32 15 " clip-rule="nonzero"/></clipPath><clipPath id="6a4eb31ea0"><path d="M 21 25 L 45 25 L 45 37.007812 L 21 37.007812 Z M 21 25 " clip-rule="nonzero"/></clipPath></defs><g clip-path="url(#6362681223)"><path fill="#ffffff" d="M 1.421875 0 L 223.460938 0 L 223.460938 37.007812 L 1.421875 37.007812 Z M 1.421875 0 " fill-opacity="1" fill-rule="nonzero"/><path fill="#ffffff" d="M 1.421875 0 L 223.460938 0 L 223.460938 37.007812 L 1.421875 37.007812 Z M 1.421875 0 " fill-opacity="1" fill-rule="nonzero"/></g><g fill="#1c1d33" fill-opacity="1"><g transform="translate(64.452966, 27.765961)"><g><path d="M 3.789062 0 L 4.597656 -2.703125 L 9.609375 -2.703125 L 10.417969 0 L 14.167969 0 L 9.015625 -15.054688 L 5.191406 -15.054688 L 0.0390625 0 Z M 7.101562 -11.128906 L 8.683594 -5.761719 L 5.523438 -5.761719 Z M 7.101562 -11.128906 "/></g></g></g><g fill="#1c1d33" fill-opacity="1"><g transform="translate(79.644731, 27.765961)"><g><path d="M 7.4375 0.335938 C 12.074219 0.335938 13.832031 -2.171875 13.832031 -5.625 L 13.832031 -15.054688 L 10.28125 -15.054688 L 10.28125 -5.625 C 10.28125 -4.085938 9.726562 -2.820312 7.4375 -2.820312 C 5.128906 -2.820312 4.578125 -4.085938 4.578125 -5.625 L 4.578125 -15.054688 L 1.027344 -15.054688 L 1.027344 -5.625 C 1.027344 -2.171875 2.78125 0.335938 7.4375 0.335938 Z M 7.4375 0.335938 "/></g></g></g><g fill="#1c1d33" fill-opacity="1"><g transform="translate(95.507287, 27.765961)"><g><path d="M 7.933594 0 L 7.933594 -11.898438 L 12.175781 -11.898438 L 12.175781 -15.054688 L 0.15625 -15.054688 L 0.15625 -11.898438 L 4.398438 -11.898438 L 4.398438 0 Z M 7.933594 0 "/></g></g></g><g fill="#1c1d33" fill-opacity="1"><g transform="translate(108.824793, 27.765961)"><g><path d="M 8.148438 0.335938 C 13.261719 0.335938 15.648438 -3.335938 15.648438 -7.539062 C 15.648438 -11.742188 13.261719 -15.371094 8.148438 -15.371094 C 3 -15.371094 0.632812 -11.742188 0.632812 -7.539062 C 0.632812 -3.335938 3 0.335938 8.148438 0.335938 Z M 8.148438 -2.820312 C 5.78125 -2.820312 4.359375 -4.675781 4.359375 -7.539062 C 4.359375 -10.378906 5.78125 -12.214844 8.148438 -12.214844 C 10.515625 -12.214844 11.917969 -10.378906 11.917969 -7.539062 C 11.917969 -4.675781 10.515625 -2.820312 8.148438 -2.820312 Z M 8.148438 -2.820312 "/></g></g></g><g fill="#1c1d33" fill-opacity="1"><g transform="translate(131.057984, 27.457557)"><g><path d="M 5.5625 0 C 10.535156 0 13.261719 -2.703125 13.261719 -7.457031 C 13.261719 -12.3125 10.554688 -15.054688 5.585938 -15.054688 L 1.558594 -15.054688 L 1.558594 0 Z M 2.921875 -13.832031 L 5.585938 -13.832031 C 9.433594 -13.832031 11.917969 -11.976562 11.917969 -7.457031 C 11.917969 -2.742188 9.15625 -1.222656 5.5625 -1.222656 L 2.921875 -1.222656 Z M 2.921875 -13.832031 "/></g></g></g><g fill="#1c1d33" fill-opacity="1"><g transform="translate(146.703676, 27.457557)"><g><path d="M 7.242188 0 L 7.242188 -5.761719 L 12.90625 -15.054688 L 11.324219 -15.054688 L 6.53125 -7.082031 L 1.738281 -15.054688 L 0.15625 -15.054688 L 5.820312 -5.761719 L 5.820312 0 Z M 7.242188 0 "/></g></g></g><g fill="#1c1d33" fill-opacity="1"><g transform="translate(161.145897, 27.457557)"><g><path d="M 2.921875 0 L 2.921875 -6.964844 L 10.140625 -6.964844 L 10.140625 -8.167969 L 2.921875 -8.167969 L 2.921875 -13.832031 L 11.148438 -13.832031 L 11.148438 -15.054688 L 1.558594 -15.054688 L 1.558594 0 Z M 2.921875 0 "/></g></g></g><g fill="#1c1d33" fill-opacity="1"><g transform="translate(174.246539, 27.457557)"><g><path d="M 2.921875 0 L 2.921875 -6.964844 L 10.140625 -6.964844 L 10.140625 -8.167969 L 2.921875 -8.167969 L 2.921875 -13.832031 L 11.148438 -13.832031 L 11.148438 -15.054688 L 1.558594 -15.054688 L 1.558594 0 Z M 2.921875 0 "/></g></g></g><g clip-path="url(#3cd1efbb1e)"><g clip-path="url(#eab43a3baa)"><path fill="#0091ff" d="M 23.183594 28.199219 L 30.101562 28.199219 L 30.101562 35.121094 L 23.183594 35.121094 Z M 23.183594 28.199219 " fill-opacity="1" fill-rule="nonzero"/></g></g><g clip-path="url(#ddc780ab1a)"><g clip-path="url(#76f56fb7d7)"><path fill="#0091ff" d="M 35.640625 28.28125 L 42.558594 28.28125 L 42.558594 35.199219 L 35.640625 35.199219 Z M 35.640625 28.28125 " fill-opacity="1" fill-rule="nonzero"/></g></g><g clip-path="url(#b6f4e06a6d)"><g clip-path="url(#1c27ee960e)"><path fill="#0091ff" d="M 29.28125 17.527344 L 36.199219 17.527344 L 36.199219 24.445312 L 29.28125 24.445312 Z M 29.28125 17.527344 " fill-opacity="1" fill-rule="nonzero"/></g></g><g clip-path="url(#33e7108025)"><g clip-path="url(#6e77fdbaf2)"><path fill="#0091ff" d="M 42.300781 17.527344 L 49.21875 17.527344 L 49.21875 24.445312 L 42.300781 24.445312 Z M 42.300781 17.527344 " fill-opacity="1" fill-rule="nonzero"/></g></g><g clip-path="url(#ca95fcd30f)"><g clip-path="url(#0cdfade8da)"><path fill="#0091ff" d="M 47.710938 28.199219 L 54.632812 28.199219 L 54.632812 35.121094 L 47.710938 35.121094 Z M 47.710938 28.199219 " fill-opacity="1" fill-rule="nonzero"/></g></g><g clip-path="url(#6c7f3fa47d)"><g clip-path="url(#161feda15e)"><path fill="#0091ff" d="M 35.382812 6.664062 L 42.300781 6.664062 L 42.300781 13.582031 L 35.382812 13.582031 Z M 35.382812 6.664062 " fill-opacity="1" fill-rule="nonzero"/></g></g><path stroke-linecap="butt" transform="matrix(0.333427, 0.660773, -0.660773, 0.333427, 50.833584, 20.907295)" fill="none" stroke-linejoin="miter" d="M 0.731343 3.350852 C 3.643687 0.215261 6.556296 0.218884 9.469214 3.349918 " stroke="#0091ff" stroke-width="2" stroke-opacity="1" stroke-miterlimit="4"/><path stroke-linecap="butt" transform="matrix(-0.740132, 0, 0, -0.740132, 42.295585, 21.727779)" fill="none" stroke-linejoin="miter" d="M -0.0017431 0.999143 L 8.242146 0.999143 " stroke="#0091ff" stroke-width="2" stroke-opacity="1" stroke-miterlimit="4"/><g clip-path="url(#f1afa58732)"><path stroke-linecap="butt" transform="matrix(0.376676, 0.637111, -0.637111, 0.376676, 35.137887, 23.592401)" fill="none" stroke-linejoin="miter" d="M -0.000913207 1.000678 L 7.528129 1.000788 " stroke="#0091ff" stroke-width="2" stroke-opacity="1" stroke-miterlimit="4"/></g><g clip-path="url(#8b767016ee)"><path stroke-linecap="butt" transform="matrix(-0.389795, 0.62917, -0.62917, -0.389795, 44.56344, 24.319894)" fill="none" stroke-linejoin="miter" d="M 0.0000085526 1.00107 L 7.740536 0.998538 " stroke="#0091ff" stroke-width="2" stroke-opacity="1" stroke-miterlimit="4"/></g><g clip-path="url(#6a4eb31ea0)"><path stroke-linecap="butt" transform="matrix(-0.74012, -0.00415502, 0.00415502, -0.74012, 36.767597, 36.082617)" fill="none" stroke-linejoin="miter" d="M 0.685554 3.184771 C 3.762016 0.269954 6.839001 0.268514 9.91126 3.185757 " stroke="#0091ff" stroke-width="2" stroke-opacity="1" stroke-miterlimit="4"/></g><path stroke-linecap="butt" transform="matrix(0.363737, -0.644585, 0.644585, 0.363737, 29.760858, 16.723452)" fill="none" stroke-linejoin="miter" d="M 0.72525 3.452362 C 3.836706 0.181555 6.951471 0.181333 10.06495 3.454291 " stroke="#0091ff" stroke-width="2" stroke-opacity="1" stroke-miterlimit="4"/></svg>