<svg xmlns="http://www.w3.org/2000/svg" xmlns:xlink="http://www.w3.org/1999/xlink" width="250" zoomAndPan="magnify" viewBox="0 0 187.5 37.5" height="50" preserveAspectRatio="xMidYMid meet" version="1.0"><defs><g/><clipPath id="73c07d05b8"><path d="M 4.246094 25.417969 L 11.164062 25.417969 L 11.164062 32.339844 L 4.246094 32.339844 Z M 4.246094 25.417969 " clip-rule="nonzero"/></clipPath><clipPath id="421ebb802e"><path d="M 7.707031 25.417969 C 5.796875 25.417969 4.246094 26.96875 4.246094 28.878906 C 4.246094 30.789062 5.796875 32.339844 7.707031 32.339844 C 9.617188 32.339844 11.164062 30.789062 11.164062 28.878906 C 11.164062 26.96875 9.617188 25.417969 7.707031 25.417969 Z M 7.707031 25.417969 " clip-rule="nonzero"/></clipPath><clipPath id="7d09cfb75b"><path d="M 16.703125 25.5 L 23.621094 25.5 L 23.621094 32.417969 L 16.703125 32.417969 Z M 16.703125 25.5 " clip-rule="nonzero"/></clipPath><clipPath id="8d6aeb9b95"><path d="M 20.160156 25.5 C 18.25 25.5 16.703125 27.046875 16.703125 28.957031 C 16.703125 30.867188 18.25 32.417969 20.160156 32.417969 C 22.070312 32.417969 23.621094 30.867188 23.621094 28.957031 C 23.621094 27.046875 22.070312 25.5 20.160156 25.5 Z M 20.160156 25.5 " clip-rule="nonzero"/></clipPath><clipPath id="788d27f996"><path d="M 10.347656 14.746094 L 17.265625 14.746094 L 17.265625 21.664062 L 10.347656 21.664062 Z M 10.347656 14.746094 " clip-rule="nonzero"/></clipPath><clipPath id="41107dd6dd"><path d="M 13.804688 14.746094 C 11.894531 14.746094 10.347656 16.296875 10.347656 18.207031 C 10.347656 20.117188 11.894531 21.664062 13.804688 21.664062 C 15.714844 21.664062 17.265625 20.117188 17.265625 18.207031 C 17.265625 16.296875 15.714844 14.746094 13.804688 14.746094 Z M 13.804688 14.746094 " clip-rule="nonzero"/></clipPath><clipPath id="07f36a1dfe"><path d="M 23.363281 14.746094 L 30.28125 14.746094 L 30.28125 21.664062 L 23.363281 21.664062 Z M 23.363281 14.746094 " clip-rule="nonzero"/></clipPath><clipPath id="7e6c538e86"><path d="M 26.820312 14.746094 C 24.910156 14.746094 23.363281 16.296875 23.363281 18.207031 C 23.363281 20.117188 24.910156 21.664062 26.820312 21.664062 C 28.734375 21.664062 30.28125 20.117188 30.28125 18.207031 C 30.28125 16.296875 28.734375 14.746094 26.820312 14.746094 Z M 26.820312 14.746094 " clip-rule="nonzero"/></clipPath><clipPath id="4963bd7b68"><path d="M 28.777344 25.417969 L 35.695312 25.417969 L 35.695312 32.339844 L 28.777344 32.339844 Z M 28.777344 25.417969 " clip-rule="nonzero"/></clipPath><clipPath id="d352fb74c4"><path d="M 32.234375 25.417969 C 30.324219 25.417969 28.777344 26.96875 28.777344 28.878906 C 28.777344 30.789062 30.324219 32.339844 32.234375 32.339844 C 34.144531 32.339844 35.695312 30.789062 35.695312 28.878906 C 35.695312 26.96875 34.144531 25.417969 32.234375 25.417969 Z M 32.234375 25.417969 " clip-rule="nonzero"/></clipPath><clipPath id="0aaea6cec9"><path d="M 16.445312 3.882812 L 23.363281 3.882812 L 23.363281 10.800781 L 16.445312 10.800781 Z M 16.445312 3.882812 " clip-rule="nonzero"/></clipPath><clipPath id="4723da305b"><path d="M 19.902344 3.882812 C 17.992188 3.882812 16.445312 5.429688 16.445312 7.339844 C 16.445312 9.25 17.992188 10.800781 19.902344 10.800781 C 21.8125 10.800781 23.363281 9.25 23.363281 7.339844 C 23.363281 5.429688 21.8125 3.882812 19.902344 3.882812 Z M 19.902344 3.882812 " clip-rule="nonzero"/></clipPath><clipPath id="03a5e1527f"><path d="M 2 22 L 26 22 L 26 37.007812 L 2 37.007812 Z M 2 22 " clip-rule="nonzero"/></clipPath></defs><g fill="#1c1d33" fill-opacity="1"><g transform="translate(45.51626, 24.984737)"><g><path d="M 3.789062 0 L 4.597656 -2.703125 L 9.609375 -2.703125 L 10.417969 0 L 14.167969 0 L 9.015625 -15.054688 L 5.191406 -15.054688 L 0.0390625 0 Z M 7.101562 -11.128906 L 8.683594 -5.761719 L 5.523438 -5.761719 Z M 7.101562 -11.128906 "/></g></g></g><g fill="#1c1d33" fill-opacity="1"><g transform="translate(60.708026, 24.984737)"><g><path d="M 7.4375 0.335938 C 12.074219 0.335938 13.832031 -2.171875 13.832031 -5.625 L 13.832031 -15.054688 L 10.28125 -15.054688 L 10.28125 -5.625 C 10.28125 -4.085938 9.726562 -2.820312 7.4375 -2.820312 C 5.128906 -2.820312 4.578125 -4.085938 4.578125 -5.625 L 4.578125 -15.054688 L 1.027344 -15.054688 L 1.027344 -5.625 C 1.027344 -2.171875 2.78125 0.335938 7.4375 0.335938 Z M 7.4375 0.335938 "/></g></g></g><g fill="#1c1d33" fill-opacity="1"><g transform="translate(76.570581, 24.984737)"><g><path d="M 7.933594 0 L 7.933594 -11.898438 L 12.175781 -11.898438 L 12.175781 -15.054688 L 0.15625 -15.054688 L 0.15625 -11.898438 L 4.398438 -11.898438 L 4.398438 0 Z M 7.933594 0 "/></g></g></g><g fill="#1c1d33" fill-opacity="1"><g transform="translate(89.888087, 24.984737)"><g><path d="M 8.148438 0.335938 C 13.261719 0.335938 15.648438 -3.335938 15.648438 -7.539062 C 15.648438 -11.742188 13.261719 -15.371094 8.148438 -15.371094 C 3 -15.371094 0.632812 -11.742188 0.632812 -7.539062 C 0.632812 -3.335938 3 0.335938 8.148438 0.335938 Z M 8.148438 -2.820312 C 5.78125 -2.820312 4.359375 -4.675781 4.359375 -7.539062 C 4.359375 -10.378906 5.78125 -12.214844 8.148438 -12.214844 C 10.515625 -12.214844 11.917969 -10.378906 11.917969 -7.539062 C 11.917969 -4.675781 10.515625 -2.820312 8.148438 -2.820312 Z M 8.148438 -2.820312 "/></g></g></g><g fill="#1c1d33" fill-opacity="1"><g transform="translate(112.121279, 24.676333)"><g><path d="M 5.5625 0 C 10.535156 0 13.261719 -2.703125 13.261719 -7.457031 C 13.261719 -12.3125 10.554688 -15.054688 5.585938 -15.054688 L 1.558594 -15.054688 L 1.558594 0 Z M 2.921875 -13.832031 L 5.585938 -13.832031 C 9.433594 -13.832031 11.917969 -11.976562 11.917969 -7.457031 C 11.917969 -2.742188 9.15625 -1.222656 5.5625 -1.222656 L 2.921875 -1.222656 Z M 2.921875 -13.832031 "/></g></g></g><g fill="#1c1d33" fill-opacity="1"><g transform="translate(127.766971, 24.676333)"><g><path d="M 7.242188 0 L 7.242188 -5.761719 L 12.90625 -15.054688 L 11.324219 -15.054688 L 6.53125 -7.082031 L 1.738281 -15.054688 L 0.15625 -15.054688 L 5.820312 -5.761719 L 5.820312 0 Z M 7.242188 0 "/></g></g></g><g fill="#1c1d33" fill-opacity="1"><g transform="translate(142.209192, 24.676333)"><g><path d="M 2.921875 0 L 2.921875 -6.964844 L 10.140625 -6.964844 L 10.140625 -8.167969 L 2.921875 -8.167969 L 2.921875 -13.832031 L 11.148438 -13.832031 L 11.148438 -15.054688 L 1.558594 -15.054688 L 1.558594 0 Z M 2.921875 0 "/></g></g></g><g fill="#1c1d33" fill-opacity="1"><g transform="translate(155.309834, 24.676333)"><g><path d="M 2.921875 0 L 2.921875 -6.964844 L 10.140625 -6.964844 L 10.140625 -8.167969 L 2.921875 -8.167969 L 2.921875 -13.832031 L 11.148438 -13.832031 L 11.148438 -15.054688 L 1.558594 -15.054688 L 1.558594 0 Z M 2.921875 0 "/></g></g></g><g clip-path="url(#73c07d05b8)"><g clip-path="url(#421ebb802e)"><path fill="#0091ff" d="M 4.246094 25.417969 L 11.164062 25.417969 L 11.164062 32.339844 L 4.246094 32.339844 Z M 4.246094 25.417969 " fill-opacity="1" fill-rule="nonzero"/></g></g><g clip-path="url(#7d09cfb75b)"><g clip-path="url(#8d6aeb9b95)"><path fill="#0091ff" d="M 16.703125 25.5 L 23.621094 25.5 L 23.621094 32.417969 L 16.703125 32.417969 Z M 16.703125 25.5 " fill-opacity="1" fill-rule="nonzero"/></g></g><g clip-path="url(#788d27f996)"><g clip-path="url(#41107dd6dd)"><path fill="#0091ff" d="M 10.347656 14.746094 L 17.265625 14.746094 L 17.265625 21.664062 L 10.347656 21.664062 Z M 10.347656 14.746094 " fill-opacity="1" fill-rule="nonzero"/></g></g><g clip-path="url(#07f36a1dfe)"><g clip-path="url(#7e6c538e86)"><path fill="#0091ff" d="M 23.363281 14.746094 L 30.28125 14.746094 L 30.28125 21.664062 L 23.363281 21.664062 Z M 23.363281 14.746094 " fill-opacity="1" fill-rule="nonzero"/></g></g><g clip-path="url(#4963bd7b68)"><g clip-path="url(#d352fb74c4)"><path fill="#0091ff" d="M 28.777344 25.417969 L 35.695312 25.417969 L 35.695312 32.339844 L 28.777344 32.339844 Z M 28.777344 25.417969 " fill-opacity="1" fill-rule="nonzero"/></g></g><g clip-path="url(#0aaea6cec9)"><g clip-path="url(#4723da305b)"><path fill="#0091ff" d="M 16.445312 3.882812 L 23.363281 3.882812 L 23.363281 10.800781 L 16.445312 10.800781 Z M 16.445312 3.882812 " fill-opacity="1" fill-rule="nonzero"/></g></g><path stroke-linecap="butt" transform="matrix(0.333427, 0.660773, -0.660773, 0.333427, 31.896879, 18.12607)" fill="none" stroke-linejoin="miter" d="M 0.733206 3.347083 C 3.643173 0.216205 6.55816 0.215116 9.4687 3.350862 " stroke="#0091ff" stroke-width="2" stroke-opacity="1" stroke-miterlimit="4"/><path stroke-linecap="butt" transform="matrix(-0.740132, 0, 0, -0.740132, 23.358878, 18.946556)" fill="none" stroke-linejoin="miter" d="M -0.000672157 0.99918 L 8.237939 0.99918 " stroke="#0091ff" stroke-width="2" stroke-opacity="1" stroke-miterlimit="4"/><path stroke-linecap="butt" transform="matrix(0.376676, 0.637111, -0.637111, 0.376676, 16.20118, 20.811177)" fill="none" stroke-linejoin="miter" d="M -0.00148987 1.001583 L 7.527552 1.001693 " stroke="#0091ff" stroke-width="2" stroke-opacity="1" stroke-miterlimit="4"/><path stroke-linecap="butt" transform="matrix(-0.389795, 0.62917, -0.62917, -0.389795, 25.626737, 21.538673)" fill="none" stroke-linejoin="miter" d="M 0.000542847 1.002006 L 7.741071 0.999474 " stroke="#0091ff" stroke-width="2" stroke-opacity="1" stroke-miterlimit="4"/><g clip-path="url(#03a5e1527f)"><path stroke-linecap="butt" transform="matrix(-0.74012, -0.00415502, 0.00415502, -0.74012, 17.83089, 33.301392)" fill="none" stroke-linejoin="miter" d="M 0.686626 3.184799 C 3.763088 0.269982 6.834796 0.268571 9.912332 3.185785 " stroke="#0091ff" stroke-width="2" stroke-opacity="1" stroke-miterlimit="4"/></g><path stroke-linecap="butt" transform="matrix(0.363737, -0.644585, 0.644585, 0.363737, 10.824156, 13.942227)" fill="none" stroke-linejoin="miter" d="M 0.724749 3.451406 C 3.836206 0.180599 6.950971 0.180377 10.064449 3.453335 " stroke="#0091ff" stroke-width="2" stroke-opacity="1" stroke-miterlimit="4"/></svg>